<svg xmlns="http://www.w3.org/2000/svg" xmlns:xlink="http://www.w3.org/1999/xlink" width="300" zoomAndPan="magnify" viewBox="0 0 224.87999 225" height="300" preserveAspectRatio="xMidYMid meet" version="1.0"><defs><clipPath id="3ed3b9d0ce"><path d="M 0 0.0585938 L 224.761719 0.0585938 L 224.761719 224.9375 L 0 224.9375 Z M 0 0.0585938 " clip-rule="nonzero"/></clipPath></defs><g clip-path="url(#3ed3b9d0ce)"><path fill="#ffffff" d="M 0 0.0585938 L 224.878906 0.0585938 L 224.878906 224.941406 L 0 224.941406 Z M 0 0.0585938 " fill-opacity="1" fill-rule="nonzero"/><path fill="#ffffff" d="M 0 0.0585938 L 224.878906 0.0585938 L 224.878906 224.941406 L 0 224.941406 Z M 0 0.0585938 " fill-opacity="1" fill-rule="nonzero"/></g><path fill="#5baab5" d="M 80.734375 215.585938 C 76.820312 215.585938 73.152344 214.117188 70.460938 211.425781 L 6.359375 145.371094 C 0.246094 139.742188 0 130.199219 5.871094 124.085938 C 11.5 117.96875 21.039062 117.722656 27.15625 123.59375 L 74.128906 157.113281 C 76.820312 159.558594 80.980469 159.070312 83.183594 156.132812 L 194.5 18.636719 C 199.394531 12.03125 208.9375 10.5625 215.542969 15.703125 C 222.148438 20.59375 223.613281 30.136719 218.476562 36.742188 L 92.722656 209.46875 C 90.03125 212.894531 86.117188 215.097656 81.960938 215.339844 C 81.46875 215.585938 81.226562 215.585938 80.734375 215.585938 Z M 80.734375 215.585938 " fill-opacity="1" fill-rule="nonzero"/></svg>